<svg width="292" height="267" viewBox="0 0 292 267" fill="none" xmlns="http://www.w3.org/2000/svg">
<path d="M238.505 92.407C235.425 91.4683 232.345 90.5818 229.266 89.7475C229.779 87.818 230.235 85.8885 230.691 83.959C237.706 52.8785 233.087 27.8994 217.517 19.66C202.518 11.7855 178.052 19.9728 153.3 39.685C150.848 41.6144 148.452 43.6482 146.171 45.682C144.631 44.3262 143.034 42.9703 141.438 41.6666C115.488 20.5986 89.482 11.7334 73.9125 20.025C58.9703 27.9516 54.5219 51.4705 60.7953 80.8822C61.4227 83.8025 62.107 86.6707 62.9055 89.591C59.2555 90.5297 55.6625 91.5726 52.2977 92.6678C21.843 102.315 0 117.543 0 133.291C0 149.562 23.2688 165.884 54.9211 175.792C57.4875 176.575 60.0539 177.357 62.6773 178.035C61.8219 181.164 61.0805 184.24 60.3961 187.421C54.4078 216.364 59.0844 239.309 74.0266 247.184C89.425 255.319 115.317 246.975 140.525 226.794C142.521 225.177 144.517 223.508 146.513 221.735C149.023 223.978 151.646 226.116 154.27 228.202C178.679 247.392 202.803 255.162 217.688 247.288C233.087 239.153 238.105 214.487 231.604 184.449C231.091 182.154 230.52 179.808 229.893 177.409C231.718 176.94 233.486 176.418 235.254 175.897C268.161 165.936 292 149.822 292 133.291C292 117.49 269.53 102.159 238.505 92.407ZM161.341 48.133C182.557 31.2369 202.347 24.6141 211.358 29.3596C220.996 34.418 224.703 54.8601 218.658 81.7166C218.259 83.4896 217.859 85.2105 217.346 86.9314C204.685 84.324 191.853 82.4467 178.964 81.4037C171.55 71.7041 163.452 62.4217 154.669 53.7129C156.893 51.7834 159.06 49.9582 161.341 48.133ZM95.3562 160.356C98.2648 164.893 101.23 169.43 104.367 173.863C95.4703 172.976 86.6305 171.673 77.9047 169.952C80.4141 162.442 83.5508 154.672 87.2008 146.746C89.8242 151.335 92.5047 155.872 95.3562 160.356ZM78.0758 97.6219C86.2883 95.9531 95.0141 94.5973 104.082 93.5543C101.059 97.8826 98.0938 102.315 95.2992 106.8C92.5047 111.233 89.7672 115.77 87.2008 120.359C83.6078 112.588 80.5852 104.975 78.0758 97.6219ZM93.7023 133.552C97.4664 126.356 101.573 119.316 105.907 112.38C110.241 105.444 114.918 98.717 119.823 92.0941C128.377 91.5205 137.103 91.2076 146 91.2076C154.897 91.2076 163.68 91.5205 172.177 92.0941C177.025 98.6648 181.645 105.392 186.036 112.276C190.427 119.159 194.534 126.199 198.412 133.344C194.591 140.54 190.484 147.632 186.093 154.62C181.759 161.556 177.139 168.283 172.291 174.958C163.794 175.532 154.954 175.792 146 175.792C137.046 175.792 128.377 175.532 119.994 175.062C115.032 168.439 110.355 161.66 105.964 154.724C101.573 147.789 97.5234 140.749 93.7023 133.552ZM196.701 160.252C199.609 155.663 202.347 151.022 205.027 146.329C208.677 153.89 211.871 161.556 214.666 169.43C205.826 171.255 196.872 172.663 187.861 173.602C190.941 169.222 193.849 164.737 196.701 160.252ZM204.913 120.359C202.233 115.77 199.495 111.18 196.644 106.696C193.849 102.263 190.941 97.8826 187.918 93.5543C197.1 94.5973 205.883 96.0053 214.095 97.7262C211.472 105.444 208.392 112.954 204.913 120.359ZM146.114 61.6916C152.102 67.6365 157.748 73.8943 162.995 80.3607C151.703 79.8914 140.354 79.8914 129.062 80.3607C134.651 73.6336 140.411 67.3758 146.114 61.6916ZM79.9578 29.7246C89.5391 24.6141 110.812 31.9148 133.225 50.0625C134.651 51.2098 136.077 52.4613 137.559 53.7129C128.72 62.4217 120.564 71.7041 113.093 81.4037C100.204 82.4467 87.4289 84.2719 74.768 86.8271C74.0266 84.1676 73.3992 81.4559 72.7719 78.7441C67.4109 53.5043 70.9469 34.4701 79.9578 29.7246ZM65.9852 167.188C63.5898 166.562 61.2516 165.884 58.9133 165.154C46.7656 161.66 32.9641 156.132 22.9836 148.884C17.2234 145.233 13.3453 139.601 12.2617 133.291C12.2617 123.748 30.2836 111.545 56.2898 103.254C59.5406 102.211 62.8484 101.272 66.1562 100.386C70.0344 111.702 74.7109 122.81 80.1289 133.552C74.6539 144.451 69.9203 155.715 65.9852 167.188ZM132.484 218.293C123.073 226.168 112.18 232.426 100.318 236.702C93.9875 239.466 86.6875 239.726 80.1859 237.38C71.118 232.582 67.3539 214.174 72.4867 189.403C73.1141 186.483 73.7984 183.562 74.5969 180.694C87.3719 183.197 100.261 184.918 113.321 185.805C120.849 195.557 129.119 204.891 137.959 213.652C136.134 215.269 134.309 216.833 132.484 218.293ZM146.456 205.621C140.639 199.885 134.822 193.523 129.176 186.691C134.651 186.9 140.297 187.004 146 187.004C151.874 187.004 157.634 186.9 163.337 186.639C158.091 193.262 152.445 199.572 146.456 205.621ZM220.996 221.266C220.483 227.628 217.061 233.573 211.586 237.588C202.518 242.386 183.184 236.128 162.311 219.754C159.916 217.876 157.52 215.842 155.068 213.756C163.794 204.943 171.835 195.609 179.135 185.805C192.195 184.814 205.198 182.989 218.03 180.329C218.601 182.467 219.114 184.605 219.57 186.691C222.365 197.955 222.821 209.689 220.996 221.266ZM231.376 165.206C229.779 165.676 228.182 166.145 226.528 166.562C222.536 155.194 217.631 144.086 211.985 133.291C217.46 122.653 222.08 111.702 225.958 100.49C228.923 101.272 231.775 102.107 234.513 102.941C261.089 111.285 279.738 123.696 279.738 133.187C279.738 143.408 259.834 156.602 231.376 165.206ZM146 157.384C160.429 157.384 172.12 146.694 172.12 133.5C172.12 120.306 160.429 109.616 146 109.616C131.571 109.616 119.88 120.306 119.88 133.5C119.88 146.694 131.571 157.384 146 157.384Z" fill="white"/>
</svg>
